<?xml version="1.0" standalone="no"?>
<!DOCTYPE svg PUBLIC "-//W3C//DTD SVG 1.1//EN" "http://www.w3.org/Graphics/SVG/1.1/DTD/svg11.dtd">
<svg xmlns="http://www.w3.org/2000/svg">
<metadata>Copyright (C) 2023 by original authors @ fontello.com</metadata>
<defs>
<font id="insales-icons" horiz-adv-x="1000" >
<font-face font-family="insales-icons" font-weight="400" font-stretch="normal" units-per-em="1000" ascent="850" descent="-150" />
<missing-glyph horiz-adv-x="1000" />
<glyph glyph-name="odnoklassniki" unicode="&#xea01;" d="M454 782c-78-16-148-81-171-160-10-32-10-94 0-125 24-81 88-142 168-161 52-12 123-3 167 21 33 17 70 57 86 91 17 35 26 75 20 85-2 4-10 7-18 8-16 1-23-7-28-31-5-26-27-64-47-84-32-32-75-49-125-48-53 0-92 15-129 52-43 42-60 94-52 156 11 94 99 162 197 153 69-6 117-34 142-84 6-12 14-24 17-27 9-7 22-4 31 8l8 11-14 29c-25 49-73 87-130 102-33 8-92 10-122 4m11-122c-24-9-55-41-64-66-18-53 8-111 60-134 36-16 87-8 115 18 61 58 39 157-40 184-19 6-50 5-71-2m73-51c35-26 33-77-3-102-11-8-17-9-36-8-19 2-24 4-36 15-33 32-25 82 15 100 16 8 47 5 60-5m-237-256c-33-17-51-45-51-77 0-23 15-55 33-68 17-13 59-36 78-42l15-4-14-15c-16-16-18-30-7-40 14-13 23-9 67 35 24 23 42 43 41 45-2 1-6 3-10 3-15 0-78 20-109 36-47 24-60 49-36 74 15 14 30 14 59-1 49-25 86-35 137-35 45 0 79 8 125 30 43 20 55 21 71 6 24-25 11-50-36-74-32-15-94-36-109-36-4 0-9-2-10-3-1-2 19-24 44-48 24-25 58-60 75-79 27-29 31-36 31-48 0-27-28-45-52-33-4 3-37 35-73 72l-65 67-70-69c-38-38-74-71-78-72-5-1-15 0-23 3-18 8-21 21-10 46 9 18 9 19 3 29-7 10-21 13-34 6-4-2-11-13-15-24-18-42-5-79 35-99 44-22 64-14 135 58l56 55 53-54c54-56 73-69 99-69 49 0 86 36 86 84 0 11-3 26-7 34-3 8-28 37-54 65l-47 50 37 17c49 23 68 38 78 62 25 58-13 118-76 118-17 0-27-3-51-15-45-23-65-29-108-31-48-2-75 4-125 29-29 14-39 17-57 17-12 0-26-2-31-5" horiz-adv-x="1000" />

<glyph glyph-name="telegram" unicode="&#xea02;" d="M627 647c-118-43-219-80-224-82-5-2-11-8-13-14-6-13 4-29 19-29 6 0 60 18 120 39 182 66 208 75 203 71-2-2-96-71-208-152l-205-148-101 20c-97 20-115 25-106 33 2 2 40 19 85 38 89 37 96 42 84 63-3 6-10 11-14 12-5 0-46-14-92-33-90-37-106-48-111-74-3-18 7-44 21-54 6-5 45-15 112-28 56-12 102-21 103-21 0 0 1-56 1-124 0-133 1-139 22-159 13-12 34-17 50-11 7 3 39 31 71 64 56 55 60 59 67 53 3-3 41-36 83-73 75-67 92-79 111-79 16 0 39 14 46 28 9 18 82 339 79 350-4 18-32 22-41 6-2-4-19-78-39-165-41-184-38-172-44-172-3 0-39 30-81 67-42 37-116 102-164 144-48 43-90 80-93 83-4 5 32 32 242 184 136 99 248 177 249 175 0-2-6-32-15-66-17-67-17-74 0-83 10-5 22-2 27 8 2 4 12 39 22 79 20 80 19 94-3 115-23 22-25 21-263-65m-208-455l49-43-55-55c-33-34-57-55-60-54-4 2-5 23-5 108l0 105 11-9c6-5 33-29 60-52" horiz-adv-x="1000" />

<glyph glyph-name="tiktok" unicode="&#xea03;" d="M503 486l-1-302-11-20c-18-35-48-53-89-53-33 0-68 23-84 53-10 18-12 58-4 78 8 21 30 44 51 54 19 8 52 9 78 2 9-3 19-5 20-3 4 4 2 183-2 186-2 1-20 3-40 5-160 9-296-119-296-279 0-122 81-231 199-268 26-8 37-9 98-9 54 0 74 2 94 7 58 17 109 52 109 76 0 6-2 13-5 16-7 7-28 6-36-3-51-57-198-70-285-27-76 39-127 124-127 210 0 67 36 141 89 181 39 30 94 50 137 50l16 0 0-45 0-44-24-2c-47-3-95-36-116-81-9-19-10-26-10-61 0-34 1-41 10-60 37-74 123-103 197-67 40 20 66 55 75 101 3 14 5 106 5 290l0 270 47 0 46 0 3-11c13-57 28-86 62-121 22-23 35-32 61-44 18-8 42-17 52-19l20-3 1-48c1-55 5-52-49-39-42 10-81 28-120 56-17 12-31 21-31 21-1-1-2-75-3-164-2-170-2-179 14-182 15-3 25 3 29 18 3 8 5 61 5 127 0 89 1 112 4 110 70-30 114-41 164-41l35 0 0 94 0 93-23 0c-47 0-90 18-124 53-34 34-53 78-53 127l0 20-93 0-94 0-1-302" horiz-adv-x="1000" />

<glyph glyph-name="vk" unicode="&#xea04;" d="M64 587c3-43 14-116 22-144 5-17 16-24 30-21 17 4 18 14 9 61-5 23-10 55-11 72l-3 29 46 0 45 0 3-28c13-142 62-253 136-305 23-17 58-33 86-39l11-3 0 188 0 187 41 0 41 0 0-105 0-106 15 0c23 0 62 14 88 31 46 29 98 95 122 154l10 26 42 0 42 0-7-21c-28-81-81-150-153-199l-34-23 39-21c33-18 70-40 88-54 7-5 24 1 29 10 8 16 1 26-31 47-16 11-30 20-31 21-1 1 13 17 32 35 63 63 99 130 121 228l6 24-89 0-89 0-9-28c-17-53-45-99-81-133-19-18-54-42-60-42-2 0-4 46-4 102l0 101-87 0-88 0 0-177c0-98-1-178-3-178-8 0-46 34-61 55-47 62-77 167-77 267l0 33-94 0-95 0 3-44m92-284c-11-11-10-19 12-54 44-74 95-125 154-153 22-10 50-21 63-25 37-10 101-18 143-18l38 0 0 92c0 68 2 92 5 92 3 0 19-7 37-16 24-12 40-23 60-42 30-30 44-53 59-94l10-30 96-1 96-1-6 23c-16 64-45 134-58 139-11 4-20 2-26-5-7-8-9-26-3-30 3-2 22-48 29-71l3-9-49 0c-38 0-49 1-49 5 0 10-28 60-45 82-24 30-62 61-97 78-26 13-77 26-99 26l-9 0 0-96 0-96-31 3c-66 6-114 19-158 42-34 18-82 67-111 112-37 58-46 65-64 47" horiz-adv-x="1000" />

<glyph glyph-name="whatsapp" unicode="&#xea05;" d="M439 720c-80-16-145-51-207-114-49-50-75-98-96-173-7-25-8-42-8-91-1-69 6-102 31-157l14-30-16-57c-20-69-21-86-4-105 21-24 31-25 104-4l64 18 34-16c50-23 72-28 122-28 48 0 55 3 55 22 0 19-8 23-53 24-48 0-70 6-117 31l-35 17-63-17c-35-10-66-18-70-18-9 0-8 7 11 76l18 63-13 27c-46 93-50 195-11 288 39 91 125 165 222 191 40 11 127 12 165 2 102-27 179-89 223-180 22-47 30-77 34-128 4-70-12-135-49-194-22-36-90-105-114-118-24-11-32-19-32-30 0-10 13-25 23-25 26 0 117 80 153 133 22 33 45 83 56 120 7 25 8 42 8 91 0 76-8 112-38 174-53 106-147 179-262 204-39 8-115 10-149 4m-65-163c-51-12-91-56-101-113-4-19-4-24 1-30 13-16 37-12 41 6 6 28 10 37 19 53 12 20 34 36 55 39l15 3 23-41 23-40-11-19c-6-11-15-28-21-38l-10-18 10-21c13-28 58-73 86-85l20-10 18 10c10 5 27 15 38 21l20 11 40-23 40-23-3-14c-4-23-19-46-39-57-17-10-23-11-50-11-97 1-189 60-236 151-15 29-26 37-41 30-15-7-16-20-5-44 14-32 38-64 66-92 54-52 111-80 189-90 56-8 94 3 126 36 31 30 47 80 34 109-4 11-12 18-39 34-79 47-84 48-129 22l-30-18-13 8c-14 9-38 33-45 47-4 6-1 13 14 39 24 42 23 49-13 111-35 60-47 67-92 57" horiz-adv-x="1000" />

<glyph glyph-name="viber" unicode="&#xea06;" d="M428 784c-116-16-194-50-249-109-45-49-71-117-51-135 17-15 32-4 42 28 9 31 25 55 53 83 70 69 209 102 367 86 204-21 286-118 286-340 0-125-24-203-79-258-59-59-141-83-288-84l-84 0-43-49c-23-27-45-49-49-49-6 0-7 7-8 59l-1 59-33 13c-62 23-93 51-120 106-20 41-27 73-29 138-2 55-3 58-12 64-12 8-26 4-32-9-11-25-1-129 18-182 16-46 48-95 76-117 16-12 72-43 79-43 4 0 6-12 7-50 2-56 6-70 28-80 33-16 54-6 102 48l38 43 52 0c227 0 351 67 400 214 17 50 24 101 24 177 0 139-29 229-94 293-43 42-94 67-176 84-36 8-59 10-121 12-42 0-88 0-103-2m102-125c-16-17-1-39 25-39 56 0 112-31 144-79 19-28 27-53 29-93 3-31 9-43 24-43 24 0 31 28 20 84-21 100-114 177-214 177-16 0-23-1-28-7m-218-64c-14-9-30-24-37-34-11-15-11-19-11-50 1-59 27-131 67-188 26-36 79-87 118-113 34-23 97-47 120-47 20 0 32 21 20 35-3 4-23 12-45 19-118 36-220 161-234 285-2 18-1 25 5 33 7 11 33 30 40 30 5 0 59-74 59-80 0-3-7-10-15-17-38-31-24-91 34-149 59-59 118-70 153-29 10 13 12 13 20 9 17-9 66-47 66-51 0-6-8-19-20-35-12-15-14-21-10-34 3-9 17-15 29-11 16 5 52 62 52 83 0 20-9 29-64 69-49 35-73 38-100 11-8-8-18-16-23-18-30-9-110 67-110 105 0 8 4 15 16 25 14 13 16 17 18 35 2 23 1 26-35 76-36 50-45 58-70 58-15 0-22-3-43-17m205-17c-12-18 5-36 35-37 40 0 86-44 91-88 4-38 10-48 27-48 32 0 28 72-8 120-28 39-74 63-118 63-17 0-21-1-27-10m-3-73c-3-4-6-11-6-15 0-9 18-23 31-23 15 0 30-16 33-34 4-28 27-37 42-16 7 8 7 12 3 29-2 11-8 26-14 33-21 31-75 46-89 26" horiz-adv-x="1000" />

<glyph glyph-name="youtube" unicode="&#xea07;" d="M275 621c-69-10-129-50-157-106l-14-30 0-135 0-135 14-30c24-47 66-81 126-99 22-7 42-7 256-7 214 0 234 0 256 7 60 18 102 52 125 98 13 26 15 33 16 69 2 23 1 46 0 51-3 13-19 20-32 14-11-5-13-10-14-56-1-29-4-40-12-57-19-38-57-65-108-76-38-8-424-8-462 0-49 11-89 38-108 74l-11 20 0 127 0 127 12 21c21 39 62 66 112 74 35 6 417 6 452 0 68-12 117-57 124-115 3-23 11-33 25-33 22 0 27 17 19 56-13 61-62 109-136 134-20 7-40 7-246 8-124 0-230 0-237-1m123-271c0-84 2-152 4-152 12 5 266 150 266 152 0 2-256 148-266 152-2 1-4-60-4-152m132 26c24-13 44-25 44-26 0-1-20-13-44-26-24-14-53-30-64-37l-21-11 0 74 0 74 21-11c11-7 40-23 64-37" horiz-adv-x="1000" />

<glyph glyph-name="angle-down" unicode="&#xea08;" d="M819 523a23 23 0 0 1-33 0l-198-198a23 23 0 1 1 33-33l198 198a23 23 0 0 1 0 33z m-617 0a23 23 0 0 1 0-33l292-292a23 23 0 0 1 33 33l-292 292a23 23 0 0 1-33 0z" horiz-adv-x="1000" />

<glyph glyph-name="angle-left" unicode="&#xea09;" d="M642 648a23 23 0 0 0 0-33l-198-198a23 23 0 1 0-33 33l197 198a23 23 0 0 0 34 0z m0-617a23 23 0 0 0-34 0l-291 292a23 23 0 0 0 33 33l292-291a23 23 0 0 0 0-34z" horiz-adv-x="1000" />

<glyph glyph-name="angle-right" unicode="&#xea0a;" d="M327 648a23 23 0 0 1 0-33l198-198a23 23 0 1 1 33 33l-198 198a23 23 0 0 1-33 0z m0-617a23 23 0 0 1 33 0l292 292a23 23 0 0 1-33 33l-292-291a23 23 0 0 1 0-34z" horiz-adv-x="1000" />

<glyph glyph-name="angle-up" unicode="&#xea0b;" d="M819 198a23 23 0 0 0-33 0l-198 198a23 23 0 0 0 33 33l198-198a23 23 0 0 0 0-33z m-617 0a23 23 0 0 0 0 33l292 292a23 23 0 0 0 33-33l-292-292a23 23 0 0 0-33 0z" horiz-adv-x="1000" />

<glyph glyph-name="arrow-down" unicode="&#xea0c;" d="M501 686a23 23 0 0 0 24-23v-625a23 23 0 0 0-47 0v625a23 23 0 0 0 23 23z m-268-380a23 23 0 0 0 34 0l251-252a23 23 0 0 0-34-33l-251 252a23 23 0 0 0 0 33z m536 0a23 23 0 0 0 0-33l-126-126a23 23 0 1 0-33 33l125 126a23 23 0 0 0 34 0z" horiz-adv-x="1000" />

<glyph glyph-name="arrow-left" unicode="&#xea0d;" d="M836 349a23 23 0 0 0-23-23h-625a23 23 0 0 0 0 46h625a23 23 0 0 0 23-23z m-380 268a23 23 0 0 0 0-34l-252-251a23 23 0 0 0-33 34l252 251a23 23 0 0 0 33 0z m0-536a23 23 0 0 0-33 0l-127 127a23 23 0 1 0 33 34l127-127a23 23 0 0 0 0-34z" horiz-adv-x="1000" />

<glyph glyph-name="arrow-right" unicode="&#xea0e;" d="M164 349a23 23 0 0 0 24 23h625a23 23 0 0 0 0-46h-625a23 23 0 0 0-24 23z m380-268a23 23 0 0 0 0 34l252 251a23 23 0 0 0 33-34l-252-251a23 23 0 0 0-33 0z m0 536a23 23 0 0 0 33 0l126-125a23 23 0 0 0-34-34l-125 125a23 23 0 0 0 0 34z" horiz-adv-x="1000" />

<glyph glyph-name="arrow-up" unicode="&#xea0f;" d="M501 14a23 23 0 0 0-23 24v625a23 23 0 0 0 47 0v-625a23 23 0 0 0-24-24z m268 380a23 23 0 0 0-34 0l-251 252a23 23 0 0 0 34 33l251-252a23 23 0 0 0 0-33z m-535 0a23 23 0 0 0-1 33l126 126a23 23 0 0 0 33-33l-125-126a23 23 0 0 0-33 0z" horiz-adv-x="1000" />

<glyph glyph-name="bars" unicode="&#xea10;" d="M133 350a23 23 0 0 0 23 23h688a23 23 0 0 0 0-46h-688a23 23 0 0 0-23 23z m0 250a23 23 0 0 0 23 23h688a23 23 0 0 0 0-46h-688a23 23 0 0 0-23 23z m0-500a23 23 0 0 0 23 23h391a23 23 0 0 0 0-46h-391a23 23 0 0 0-23 23z" horiz-adv-x="1000" />

<glyph glyph-name="bell-slash" unicode="&#xea11;" d="M381 753a319 319 0 0 0 129 27c181 0 302-142 302-271 0-35 5-60 11-80 6-19 15-34 24-49l3-5c8-14 18-30 25-49 8-21 13-46 13-79a23 23 0 0 0-47 0c0 28-4 47-10 63-6 14-13 26-22 41l-2 5c-10 16-21 34-29 59-8 25-13 54-13 94 0 102-98 224-255 224a272 272 0 0 1-110-23 23 23 0 0 0-19 43z m-82-84a23 23 0 0 0 4-33c-31-40-48-85-48-127 0-40-5-69-12-94-8-25-19-43-29-59l-3-5c-8-15-15-27-21-41-6-16-10-35-10-62 2-26 10-46 22-61 12-16 30-29 56-39 53-21 135-29 252-29 122 0 205 9 258 31a23 23 0 0 0 18-43c-62-27-154-34-276-34-117 0-207 7-269 31-32 13-58 30-77 54-18 24-28 53-31 87a24 24 0 0 0 0 2c0 33 5 58 13 79 7 19 17 35 25 49l3 5c9 15 18 30 24 49 6 20 11 45 11 80 0 54 21 109 57 156a23 23 0 0 0 33 4z m92-681a23 23 0 0 0 34-2c47-53 120-53 168 0a23 23 0 1 0 34-31c-66-74-171-75-237 0a23 23 0 0 0 1 33z m-188 754a23 23 0 0 0 33-1l364-382a23 23 0 0 0-34-32l-364 382a23 23 0 0 0 1 33z m476-500a23 23 0 0 0 33-1l149-156a23 23 0 1 0-34-32l-149 156a23 23 0 0 0 1 33z" horiz-adv-x="1000" />

<glyph glyph-name="bell" unicode="&#xea12;" d="M398 760a322 322 0 0 0 112 20c181 0 302-142 302-271 0-35 5-60 11-80 6-19 15-34 24-49l3-5c8-14 18-30 25-49 8-21 13-46 13-79a24 24 0 0 0 0-2c-3-34-13-63-32-87-18-24-44-41-76-54-62-24-152-31-270-31-117 0-207 7-269 31-32 13-58 30-77 54-18 24-28 53-31 87a24 24 0 0 0 0 2c0 33 5 58 13 79 7 19 17 35 25 49l3 5c9 15 18 30 24 49 6 20 11 45 11 80 0 52 20 106 55 152a23 23 0 0 0 37-28c-30-39-45-84-45-124 0-40-5-69-13-94-8-25-19-43-29-59l-3-5c-8-15-15-27-21-41-6-16-10-35-10-62 2-26 10-46 22-61 12-16 30-29 56-39 53-21 135-29 252-29 118 0 200 8 253 29 26 10 44 23 56 39 12 15 20 35 22 61 0 27-4 46-10 62-6 14-13 26-22 41l-2 5c-10 16-21 34-29 59-8 25-13 54-13 94 0 102-98 224-255 224a275 275 0 0 1-96-17 23 23 0 1 0-16 44z m-7-772a23 23 0 0 0 34-2c48-53 120-53 168 0a23 23 0 1 0 34-31c-66-74-171-75-237 0a23 23 0 0 0 1 33z" horiz-adv-x="1000" />

<glyph glyph-name="calendar" unicode="&#xea13;" d="M105 448a23 23 0 0 0 24 23h743a23 23 0 0 0 0-47h-743a23 23 0 0 0-24 24z m557-163a23 23 0 0 0 23 23h1a23 23 0 0 0 0-46h-1a23 23 0 0 0-23 23z m-185 0a23 23 0 0 0 23 23h1a23 23 0 0 0 0-46h-1a23 23 0 0 0-23 23z m-185 0a23 23 0 0 0 23 23h0a23 23 0 0 0 0-46h0a23 23 0 0 0-23 23z m370-162a23 23 0 0 0 23 24h1a23 23 0 0 0 0-47h-1a23 23 0 0 0-23 23z m-185 0a23 23 0 0 0 23 24h1a23 23 0 0 0 0-47h-1a23 23 0 0 0-23 23z m-185 0a23 23 0 0 0 23 24h0a23 23 0 0 0 0-47h0a23 23 0 0 0-23 23z m377 657a23 23 0 0 0 23-24v-137a23 23 0 0 0-47 0v137a23 23 0 0 0 24 24z m-325 0a23 23 0 0 0 23-24v-47h164a23 23 0 0 0 0-46h-164v-47a23 23 0 0 0-47 0v140a23 23 0 0 0 24 24z m309-89a23 23 0 0 0 24 23c65 0 121-18 161-56 40-38 61-94 60-161v-380c0-68-20-123-60-161-40-38-96-57-162-57h-352c-66 0-122 19-162 58-40 39-60 95-60 163v377c0 73 24 132 71 170a23 23 0 1 0 29-37c-33-27-54-70-54-133v-377c0-59 18-101 47-130 29-28 72-44 129-44h352c57 0 101 16 130 44 28 27 46 69 46 127v380c0 58-18 100-46 127-29 27-72 43-129 43a23 23 0 0 0-24 24z" horiz-adv-x="1000" />

<glyph glyph-name="camera" unicode="&#xea14;" d="M437 667c-22-2-37-5-45-8-13-5-23-17-33-35-4-7-7-12-10-18-1-3-2-6-4-9-4-8-9-18-16-25-23-25-54-33-73-33a108 108 0 0 1-108-108v-241a152 152 0 0 1 153-153 23 23 0 1 0 0-47 199 199 0 0 0-199 200v241a155 155 0 0 0 154 155c9 0 26 4 38 17 2 2 5 7 9 15l4 7c3 7 7 14 11 21 11 20 28 45 57 57 14 6 36 9 58 11 23 2 50 3 77 3 27 0 55-1 78-3 22-2 44-5 58-11 29-12 46-37 57-57 4-7 8-14 11-21 1-2 2-5 4-7 4-8 7-13 9-15 11-13 29-17 38-17a155 155 0 0 0 154-155v-241a199 199 0 0 0-199-200h-220a23 23 0 0 0 0 47h220a152 152 0 0 1 152 153v241a108 108 0 0 1-107 108c-19 0-50 8-73 33-7 7-12 17-16 25l-5 9c-3 6-6 11-9 18-10 18-20 30-34 35-7 3-22 6-45 8a813 813 0 0 1-73 3c-25 0-51-1-73-3z m271-213a31 31 0 0 0 31 31h1a31 31 0 1 0 0-62h-1a31 31 0 0 0-31 31z m-221-19a23 23 0 0 0 23 24 156 156 0 1 0 0-312 156 156 0 0 0-149 200 23 23 0 0 0 45-13 109 109 0 1 1 104 78 23 23 0 0 0-23 23z" horiz-adv-x="1000" />

<glyph glyph-name="cart" unicode="&#xea15;" d="M319 146c-50 0-93 41-96 91l-41 459-69 13c-12 3-22 15-19 28 4 12 16 22 29 19l87-16c9 0 16-9 19-22l40-478c0-25 22-47 50-47h454c25 0 46 19 50 44l40 272c0 9 0 15-6 25-6 9-13 12-22 12h-437c-13 3-22 13-22 25s9 22 25 22h443c22-3 41-12 54-31 12-16 18-38 15-59l-40-272c-7-47-50-85-97-85h-457z m388 247h-116c-12 0-25 10-25 25s10 25 25 25h116c12 0 25-9 25-25s-13-25-25-25z m-406-369c12 0 22-9 22-21 0-13-10-22-22-22-13 0-22 9-22 22 0 12 9 21 22 21z m0-68c-25 0-47 21-47 47s22 46 47 46 47-21 47-46-22-47-47-47z m472 68c12 0 21-9 21-21 0-13-9-22-21-22-13 0-22 9-22 22-3 12 9 21 22 21z m0-68c-25 0-47 21-47 47s22 46 47 46 46-21 46-46c-3-26-21-47-46-47z" horiz-adv-x="1000" />

<glyph glyph-name="check-square" unicode="&#xea16;" d="M163 681c40 43 98 67 167 67h361c70 0 129-25 169-70a23 23 0 0 0-35-31c-30 34-76 55-134 55h-361c-57 0-102-20-133-53-30-33-49-81-49-139v-341c0-58 19-106 49-138 31-33 76-53 133-53h361c57 0 102 20 133 53 30 32 48 80 48 138v228a23 23 0 0 0 47 0v-228c0-67-21-127-61-171-40-43-98-67-167-67h-361c-69 0-127 24-167 67-40 44-61 104-61 171v341c0 68 21 128 61 171z m512-226a23 23 0 0 0 0-33l-197-198a23 23 0 0 0-34 0l-98 99a23 23 0 0 0 33 33l82-82 181 181a23 23 0 0 0 33 0z" horiz-adv-x="1000" />

<glyph glyph-name="check" unicode="&#xea17;" d="M860 585a23 23 0 0 0 0-33l-437-437a23 23 0 0 0-33 33l437 437a23 23 0 0 0 33 0z m-689-218a23 23 0 0 0 33 0l125-125a23 23 0 0 0-33-34l-125 125a23 23 0 0 0 0 34z" horiz-adv-x="1000" />

<glyph glyph-name="circle" unicode="&#xea18;" d="M500 702c-194 0-352-158-352-352s158-352 352-352c52 0 102 12 147 32a23 23 0 1 0 19-42 397 397 0 0 0-166-36c-220 0-398 178-398 398s178 398 398 398 398-178 398-398c0-59-12-115-36-166a23 23 0 1 0-42 20 350 350 0 0 1 32 146c0 194-158 352-352 352z" horiz-adv-x="1000" />

<glyph glyph-name="clock" unicode="&#xea19;" d="M163 681c40 43 98 67 167 67h361c69 0 127-24 167-67 40-43 61-103 61-171v-341c0-67-21-127-61-171-40-43-98-67-167-67h-361c-69 0-127 24-167 67-40 44-61 104-61 171a23 23 0 0 0 46 0c0-58 19-106 49-138 31-33 75-53 133-53h361c57 0 102 20 133 53 30 32 48 80 48 138v341c0 58-18 106-48 139-31 33-76 53-133 53h-361c-57 0-102-20-133-53-30-33-49-81-49-139v-66a23 23 0 0 0-46 0v66c0 68 21 128 61 171z m347-136a23 23 0 0 0 24-23v-169l130-77a23 23 0 0 0-24-41l-142 85a23 23 0 0 0-11 20v182a23 23 0 0 0 23 23z" horiz-adv-x="1000" />

<glyph glyph-name="comments" unicode="&#xea1a;" d="M789 618c-154 153-403 153-557 0-120-120-146-298-78-444l0-1 0-1c9-21 18-44 18-67 0-16-4-31-8-45-2-8-4-15-7-21l0-2c-2-6-4-12-6-17-4-13-6-22-6-29 0-7 2-10 4-13 3-2 6-4 13-4 7 0 16 2 29 6 5 2 11 4 17 6l2 0c6 3 13 5 20 7 14 5 30 8 46 9a23 23 0 0 0 0-47c-9 0-20-3-32-7-6-1-13-4-19-6l-2 0c-6-2-12-5-18-7-14-4-29-8-43-8-16 0-32 5-46 18-13 14-18 30-18 46 0 15 4 30 8 43 2 6 4 12 6 18a1108 1108 0 0 1 7 21c4 13 6 23 6 32 0 12-5 26-14 50-75 163-46 362 88 496 172 172 451 172 623 0 172-172 171-451 0-623a439 439 0 0 0-339-128 23 23 0 0 0 3 47c109-7 219 31 303 115 153 153 153 402 0 556z m-146-296a31 31 0 0 0 32 32h0a31 31 0 1 0 0-63h0a31 31 0 0 0-32 31z m-167 0a31 31 0 0 0 32 32h0a31 31 0 1 0 0-63h0a31 31 0 0 0-32 31z m-167 0a31 31 0 0 0 32 32h0a31 31 0 1 0 0-63h0a31 31 0 0 0-32 31z" horiz-adv-x="1000" />

<glyph glyph-name="compare" unicode="&#xea1b;" d="M318 438a23 23 0 0 0 23-23v-286a23 23 0 0 0-47 0v286a23 23 0 0 0 24 23z m194 137a23 23 0 0 0 23-24v-422a23 23 0 0 0-46 0v422a23 23 0 0 0 23 24z m191-288a23 23 0 0 0 24-23v-135a23 23 0 0 0-47 0v134a23 23 0 0 0 23 24z m-567 420c44 46 105 73 179 73h391c74 0 136-27 179-73 43-46 66-110 66-183v-111a23 23 0 0 0-47 0v111c0 63-20 115-54 151-33 36-82 58-144 58h-391c-62 0-111-22-144-58-34-36-54-88-54-151v-368c0-64 20-116 53-152 34-36 83-58 145-58h391c62 0 111 22 144 58 34 36 54 88 54 152a23 23 0 0 0 47 0c0-73-23-138-66-184-43-46-105-73-179-73h-391c-74 0-136 27-179 73-43 46-66 111-66 184v368c0 73 23 137 66 183z" horiz-adv-x="1000" />

<glyph glyph-name="content" unicode="&#xea1c;" d="M331 164a23 23 0 0 0 23 23h301a23 23 0 0 0 0-47h-301a23 23 0 0 0-23 24z m0 174a23 23 0 0 0 23 24h301a23 23 0 0 0 0-47h-301a23 23 0 0 0-23 23z m0 174a23 23 0 0 0 23 24h115a23 23 0 0 0 0-47h-115a23 23 0 0 0-23 23z m332 236c63 0 117-20 154-59 38-39 57-93 57-156v-383c0-63-19-117-56-155-38-39-91-60-153-60h-1l-320-1h0l0 24v-24c-63 0-117 21-154 60-38 39-57 93-57 156v383c0 63 19 117 56 155 38 39 91 60 153 60h0l321 0v-23 23z m0-46l-320-1h0c-53 0-93-17-120-45-27-29-43-70-43-123v-383c0-53 16-95 43-123 28-29 68-46 121-46l320 0h0c53 1 93 18 120 46 27 29 43 70 43 123v383c0 53-16 95-44 123-27 28-67 46-120 46z" horiz-adv-x="1000" />

<glyph glyph-name="credit-card" unicode="&#xea1d;" d="M706 22h-428c-12 0-25 9-25 25s10 25 25 25h428c169 0 169 91 169 122v300c0 53-16 122-166 122h-462c-116 0-138-44-138-122v-10h666c13 0 25-9 25-25s-9-25-25-25h-666v-362c0-13-9-25-25-25s-21 16-21 28v419c0 119 56 169 184 169h466c175 0 212-91 212-169v-303c-3-63-31-169-219-169z m66 125h-156c-13 0-25 9-25 25s9 25 25 25h156c12 0 25-9 25-25s-9-25-25-25z m-250 0h-63c-12 0-25 9-25 25s10 25 25 25h63c12 0 25-9 25-25s-9-25-25-25z" horiz-adv-x="1000" />

<glyph glyph-name="desktop" unicode="&#xea1e;" d="M831 144c13 13 21 35 21 81v313c0 45-8 68-21 81-12 12-35 20-81 20h-312a23 23 0 0 0 0 47h312c48 0 88-8 114-34 27-27 34-66 34-114v-313c0-48-7-88-34-114-26-27-66-34-114-34h-500c-48 0-88 7-114 34-27 26-34 66-34 114v313c0 48 7 87 34 114 26 26 66 34 114 34a23 23 0 0 0 0-47c-46 0-68-8-81-20-13-13-21-36-21-81v-313c0-46 8-68 21-81 13-13 35-21 81-21h500c46 0 69 8 81 21z m-479-169a23 23 0 0 0 23 23h250a23 23 0 0 0 0-46h-250a23 23 0 0 0-23 23z" horiz-adv-x="1000" />

<glyph glyph-name="dot-circle" unicode="&#xea1f;" d="M500 702c-194 0-352-158-352-352s158-352 352-352c52 0 102 12 147 32a23 23 0 1 0 19-42 397 397 0 0 0-166-36c-220 0-398 178-398 398s178 398 398 398 398-178 398-398c0-59-12-115-36-166a23 23 0 1 0-42 20 350 350 0 0 1 32 146c0 194-158 352-352 352z m0-219a133 133 0 1 1 0-266 133 133 0 0 1 0 266z m-180-133a180 180 0 1 0 360 0 180 180 0 0 0-360 0z" horiz-adv-x="1000" />

<glyph glyph-name="ellipsis-h" unicode="&#xea20;" d="M500 420a70 70 0 1 1 0-140 70 70 0 0 1 0 140z m-117-70a117 117 0 1 0 234 0 117 117 0 0 0-234 0z m-195 70a70 70 0 1 1 0-140 70 70 0 0 1 0 140z m-118-70a117 117 0 1 0 235 0 117 117 0 0 0-235 0z m743 70a70 70 0 1 1 0-140 70 70 0 0 1 0 140z m-118-70a117 117 0 1 0 235 0 117 117 0 0 0-235 0z" horiz-adv-x="1000" />

<glyph glyph-name="ellipsis-v" unicode="&#xea21;" d="M500 420a70 70 0 1 1 0-140 70 70 0 0 1 0 140z m-117-70a117 117 0 1 0 234 0 117 117 0 0 0-234 0z m117 383a70 70 0 1 1 0-141 70 70 0 0 1 0 141z m-117-70a117 117 0 1 0 234 0 117 117 0 0 0-234 0z m117-555a70 70 0 1 1 0-141 70 70 0 0 1 0 141z m-117-70a117 117 0 1 0 234 0 117 117 0 0 0-234 0z" horiz-adv-x="1000" />

<glyph glyph-name="envelope" unicode="&#xea22;" d="M247 496a23 23 0 0 0 33 3l187-150c26-21 63-21 90 0l185 150a23 23 0 0 0 29-36l-185-151a119 119 0 0 0-148 0l-1 0-186 151a23 23 0 0 0-4 33z m-177-3c0 138 94 255 236 255h409c142 0 236-117 236-255a23 23 0 0 0-47 0c0 118-78 209-189 209h-409c-111 0-189-91-189-209v-286c0-118 78-209 189-209h409c111 0 189 91 189 209v65a23 23 0 0 0 47 0v-65c0-138-94-256-236-255h-409c-142-1-236 117-236 255v286z" horiz-adv-x="1000" />

<glyph glyph-name="exchange" unicode="&#xea23;" d="M747 141a23 23 0 0 0-23-23h-568a23 23 0 0 0 0 47h568a23 23 0 0 0 23-24z m-403 187a23 23 0 0 0 0-33l-154-154 154-153a23 23 0 1 0-34-33l-170 170a23 23 0 0 0 0 33l170 170a23 23 0 0 0 34 0z m516 227a23 23 0 0 0-23-23h-568a23 23 0 0 0 0 47h568a23 23 0 0 0 23-24z m0 0c0-6-2-12-7-16l-170-170a23 23 0 0 0-33 33l154 153-154 153a23 23 0 0 0 33 34l170-170a23 23 0 0 0 7-17z" horiz-adv-x="1000" />

<glyph glyph-name="exclamation-triangle" unicode="&#xea24;" d="M416 662c42 74 148 74 190 0a23 23 0 1 0-41-23c-24 42-84 42-108 0l-300-524c-24-41 6-93 54-93h599c48 0 78 52 55 93l-150 262a23 23 0 1 0 41 23l149-261c42-73-11-164-95-164h-599c-84 0-137 91-95 164l300 523z m95-218a23 23 0 0 0 23-24v-129a23 23 0 0 0-47 0v129a23 23 0 0 0 24 24z m-32-281a31 31 0 0 0 31 31h1a31 31 0 1 0 0-63h-1a31 31 0 0 0-31 32z" horiz-adv-x="1000" />

<glyph glyph-name="exclamation" unicode="&#xea25;" d="M500 623a23 23 0 0 0 23-23v-312a23 23 0 0 0-46 0v312a23 23 0 0 0 23 23z m0-492a31 31 0 1 1 0 63 31 31 0 0 1 0-63z" horiz-adv-x="1000" />

<glyph glyph-name="eye-slash" unicode="&#xea26;" d="M510 474a108 108 0 0 1-108-109c0-30 12-56 32-76a23 23 0 1 0-33-33 154 154 0 0 0-46 109 155 155 0 0 0 155 155c43 0 82-17 110-45a23 23 0 0 0-33-33 107 107 0 0 1-77 32z m134-109a23 23 0 0 0 19-27 155 155 0 0 0-125-125 23 23 0 1 0-8 46 108 108 0 0 1 87 87 23 23 0 0 0 27 19z m-134 281c-73 0-144-26-206-76l-1 0c-60-48-113-117-152-205 39-87 91-156 151-204a23 23 0 1 0-29-37c-69 55-128 134-169 232a23 23 0 0 0 0 18c42 98 100 178 170 233 70 55 152 86 236 86 86 0 167-31 237-87a23 23 0 1 0-29-36c-63 49-134 76-208 76z m297-131a23 23 0 0 0 33-5c29-39 56-85 77-136a23 23 0 0 0 0-18c-84-195-236-319-407-319-38 0-76 7-112 19a23 23 0 1 0 14 44 309 309 0 0 1 98-16c144 0 280 102 360 281a610 610 0 0 1-68 117 23 23 0 0 0 5 33z m49 195a23 23 0 0 0 0-33l-658-657a23 23 0 0 0-33 33l658 657a23 23 0 0 0 33 0z" horiz-adv-x="1000" />

<glyph glyph-name="eye" unicode="&#xea27;" d="M502 181c-15 0-34 3-50 10-12 3-18 18-15 28 3 12 19 19 28 15 12-3 22-6 34-6 60 0 110 50 110 110s-50 109-110 109-109-50-109-109c0-13 3-22 6-32 3-12-3-25-15-28-13-3-25 3-29 16-6 15-6 31-6 47 0 84 69 156 156 156 85 0 157-69 157-156-3-91-72-160-157-160z m0-175c-168 0-321 119-406 319-3 6-3 13 0 19 85 200 238 319 406 319s322-119 407-319c3-6 3-13 0-19-10-25-22-50-38-72-6-12-22-15-31-9-13 6-16 22-9 31 9 19 21 38 31 59-78 175-213 282-360 282s-281-107-359-282c78-175 213-281 359-281 69 0 135 22 194 66 10 6 25 6 31-6 7-10 7-25-6-32-65-47-140-75-219-75z" horiz-adv-x="1000" />

<glyph glyph-name="favorites-f" unicode="&#xea28;" d="M500 6c-62 0-391 219-391 485a203 203 0 0 0 391 78 203 203 0 0 0 391-78c0-266-328-485-391-485z m-233 714a234 234 0 0 0 233-89 234 234 0 0 0 422-140c0-146-89-274-181-364-47-46-96-83-137-109-21-13-40-23-57-31-15-6-32-12-47-12s-32 6-47 12a448 448 0 0 0-57 31c-41 26-90 63-137 109-92 90-181 218-181 364a234 234 0 0 0 189 229z" horiz-adv-x="1000" />

<glyph glyph-name="favorites-o" unicode="&#xea29;" d="M502-25c-80 0-424 239-424 520 0 54 19 105 51 146 35 42 80 70 134 80 51 9 108 3 153-22a305 305 0 0 0 82-74c23 32 48 58 83 74 48 25 102 31 153 22 51-10 99-38 134-80 35-41 54-95 54-146 0-179-134-326-217-396-9-9-25-6-35 4-9 9-6 25 4 35 73 67 197 200 197 360 0 41-16 83-41 114-26 32-64 55-105 64-42 10-86 3-121-19a232 232 0 0 1-83-92c-7-19-38-19-45 0-16 38-44 70-83 92a200 200 0 0 1-121 19c-41-9-79-32-105-64s-41-73-41-114c0-255 318-475 376-475 12 0 25-10 25-26s-13-22-25-22z" horiz-adv-x="1000" />

<glyph glyph-name="favorites" unicode="&#xea2a;" d="M509-10c-78 0-415 234-415 509 0 53 19 103 50 144 34 40 78 69 131 78 50 9 106 3 150-22 31-19 59-44 81-72 22 31 47 56 82 72 46 25 100 31 150 22 50-9 96-38 131-78s53-94 53-144c0-175-131-319-213-387-9-10-25-7-34 3-9 9-6 25 3 34 72 66 194 197 194 353 0 41-16 81-41 113s-62 53-103 62c-40 10-84 3-119-19-34-21-62-53-81-90-6-19-37-19-44 0-15 37-43 69-81 90-37 19-78 25-119 19-40-9-78-31-103-62-25-32-40-72-40-113 0-250 312-465 368-465 13 0 25-10 25-25s-12-22-25-22z" horiz-adv-x="1000" />

<glyph glyph-name="file-code-o" unicode="&#xea2b;" d="M268 521a23 23 0 0 0-3-33l-166-138 166-138a23 23 0 1 0-30-36l-187 156a23 23 0 0 0 0 36l187 156a23 23 0 0 0 33-3z m464 0a23 23 0 0 0 33 3l188-156a23 23 0 1 0-30-36l-188 156a23 23 0 0 0-3 33z m130-234a23 23 0 0 0-3-33l-94-78a23 23 0 1 0-30 36l94 78a23 23 0 0 0 33-3z m-229 429a23 23 0 0 0 14-30l-250-688a23 23 0 1 0-44 16l250 688a23 23 0 0 0 30 14z" horiz-adv-x="1000" />

<glyph glyph-name="filter" unicode="&#xea2c;" d="M102 659c0 49 39 89 88 89h123a23 23 0 0 0 0-46h-123c-22 0-42-19-42-43v-39c0-21 9-42 23-57l200-213a24 24 0 0 0 2-1 238 238 0 0 0 67-167 23 23 0 0 0-47 0c0 50-19 97-52 132a23 23 0 0 0-2 2l-202 215a130 130 0 0 0-35 89v39z m343 66a23 23 0 0 0 24 23h341c49 0 88-40 88-89v-39a130 130 0 0 0-35-89l-202-215a191 191 0 0 1-53-133v-95c0-29-16-55-41-69l-115-63a23 23 0 0 0-22 42l115 62a31 31 0 0 1 16 28v95a238 238 0 0 0 67 166l201 214a83 83 0 0 1 23 57v39c0 24-19 43-42 43h-341a23 23 0 0 0-24 23z" horiz-adv-x="1000" />

<glyph glyph-name="folder-open" unicode="&#xea2d;" d="M158 679c-27-34-41-87-41-159v-240h539a23 23 0 0 0 0-47h-539v-38c0-70 21-123 56-158 35-35 88-56 158-56h325c69 0 122 21 157 56s56 88 56 158a23 23 0 0 0 47 0c0-80-23-145-69-191-47-47-112-70-191-70h-325c-79 0-145 23-191 70-46 46-70 111-70 191v325c0 76 14 142 51 188 39 48 97 72 177 72h83a118 118 0 0 0 95-48l0 0 38-50a72 72 0 0 1 57-29h118c78 0 138-20 176-65 38-45 52-109 52-187a23 23 0 0 0-47 0c0 74-13 125-40 156-27 31-70 49-141 49h-118a119 119 0 0 0-95 48l-38 50 0 0a72 72 0 0 1-57 29h-83c-70 0-113-20-140-54z" horiz-adv-x="1000" />

<glyph glyph-name="home" unicode="&#xea2e;" d="M766-92h-82c-40 0-75 34-75 75v128c0 19-15 34-37 34h-119c-19 0-34-15-34-34v-50c0-13-10-25-25-25s-25 9-25 25v50c0 44 37 81 81 81h122c47 0 84-37 84-81v-128c0-16 13-28 28-28h79c65 0 121 53 121 118v366c0 25-12 47-31 59l-275 219c-40 31-97 31-134 0l-88-69c-9-9-25-6-31 4-9 9-6 25 3 31l88 72c56 43 137 43 193 0l275-219c32-22 47-59 50-97v-362c-3-94-78-169-168-169z m-313 0h-190c-94 0-169 75-169 165v366c0 38 19 75 50 97 9 9 25 6 34-3 6-13 3-25-6-35-19-15-31-37-31-59v-362c0-66 53-119 122-119h190c13 0 25-10 25-25s-12-25-25-25z" horiz-adv-x="1000" />

<glyph glyph-name="info" unicode="&#xea2f;" d="M163 681c40 43 98 67 167 67h361c69 0 127-24 167-67 40-43 61-103 61-171v-341c0-67-21-127-61-171-40-43-98-67-167-67h-361c-64 0-118 21-158 58a23 23 0 1 0 32 34c30-28 73-45 126-45h361c57 0 102 20 133 53 30 32 48 80 48 138v341c0 58-18 106-48 139-31 33-76 53-133 53h-361c-57 0-102-20-133-53-30-33-49-81-49-139v-238a23 23 0 0 0-46 0v238c0 68 21 128 61 171z m347-318a23 23 0 0 0 24-23v-167a23 23 0 0 0-47 0v167a23 23 0 0 0 23 23z m-31 135a31 31 0 0 0 31 31h0a31 31 0 0 0 0-62h0a31 31 0 0 0-31 31z" horiz-adv-x="1000" />

<glyph glyph-name="laptop" unicode="&#xea30;" d="M831 144c13 13 21 35 21 81a23 23 0 0 0 46 0c0-48-7-88-34-114-26-27-66-34-114-34h-500c-48 0-88 7-114 34-27 26-34 66-34 114v313c0 48 7 87 34 114 26 26 66 34 114 34h500c48 0 88-8 114-34 27-27 34-66 34-114v-110a23 23 0 0 0-46 0v110c0 45-8 68-21 81-12 12-35 20-81 20h-500c-46 0-68-8-81-20-13-13-21-36-21-81v-313c0-46 8-68 21-81 13-13 35-21 81-21h500c46 0 69 8 81 21z m-729-169a23 23 0 0 0 23 23h750a23 23 0 0 0 0-46h-750a23 23 0 0 0-23 23z" horiz-adv-x="1000" />

<glyph glyph-name="life-bouy" unicode="&#xea31;" d="M500 702c-194 0-352-158-352-352s158-352 352-352 352 158 352 352-158 352-352 352z m-398-352c0 220 178 398 398 398s398-178 398-398-178-398-398-398-398 178-398 398z m398 133a133 133 0 1 1 0-266 133 133 0 0 1 0 266z m-180-133a180 180 0 1 0 360 0 180 180 0 0 0-360 0z m-66 282l154-155-33-33-154 155 33 33z m530-33l-155-155-33 33 155 155 33-33z m-155-343l155-155-33-33-155 155 33 33z m-221-33l-154-155-33 33 154 155 33-33z" horiz-adv-x="1000" />

<glyph glyph-name="location-arrow" unicode="&#xea32;" d="M850 663a30 30 0 0 1-36 37l-644-188c-24-7-29-39-9-53l316-118a23 23 0 0 0 14-14l116-316a30 30 0 0 1 53 9l63 212a23 23 0 0 0 44-14l-62-212c-19-63-104-74-139-18a23 23 0 0 0-2 4l-113 309-309 115a23 23 0 0 0-4 2c-56 35-45 120 19 139l644 188c58 17 111-37 94-95l-53-182a23 23 0 1 0-45 14l53 181z" horiz-adv-x="1000" />

<glyph glyph-name="long-arrow-down" unicode="&#xea33;" d="M490 717a23 23 0 0 0 23-23v-373a23 23 0 0 0-47 0v373a23 23 0 0 0 24 23z m-229-385a23 23 0 0 0 20 12h417a23 23 0 0 0 0-47h-374l166-263 118 188a23 23 0 1 0 40-25l-139-219a23 23 0 0 0-39 0l-209 330a23 23 0 0 0 0 24z" horiz-adv-x="1000" />

<glyph glyph-name="long-arrow-left" unicode="&#xea34;" d="M883 360a23 23 0 0 0-23-23h-373a23 23 0 0 0 0 47h373a23 23 0 0 0 23-24z m-385 229a23 23 0 0 0 12-20v-417a23 23 0 0 0-46 0v374l-264-166 188-118a23 23 0 0 0-25-39l-219 138a23 23 0 0 0 0 39l331 209a23 23 0 0 0 23 0z" horiz-adv-x="1000" />

<glyph glyph-name="long-arrow-right" unicode="&#xea35;" d="M133 360a23 23 0 0 0 23 24h373a23 23 0 0 0 0-47h-373a23 23 0 0 0-23 23z m385-228a23 23 0 0 0-12 20v417a23 23 0 0 0 47 0v-374l263 165-188 119a23 23 0 1 0 25 39l219-138a23 23 0 0 0 0-39l-330-209a23 23 0 0 0-24 0z" horiz-adv-x="1000" />

<glyph glyph-name="long-arrow-up" unicode="&#xea36;" d="M490-33a23 23 0 0 0-24 23v373a23 23 0 0 0 47 0v-373a23 23 0 0 0-23-23z m229 385a23 23 0 0 0-21-12h-417a23 23 0 0 0 0 47h375l-166 263-118-187a23 23 0 0 0-40 25l138 218a23 23 0 0 0 40 0l208-330a23 23 0 0 0 1-24z" horiz-adv-x="1000" />

<glyph glyph-name="map-marker" unicode="&#xea37;" d="M481 539a128 128 0 1 0-107-107 23 23 0 0 0 46-7 81 81 0 1 1 68 67 23 23 0 0 0-7 47z m19 163c-159 0-289-131-289-292 0-103 61-206 132-285 34-40 71-72 101-94 15-12 29-20 39-26 5-2 10-4 13-5a23 23 0 0 1 4-2 23 23 0 1 0 0-46c-12 0-26 5-39 12-13 7-28 17-45 29-33 24-71 59-108 101-74 82-144 196-144 316 0 187 150 338 336 338 186 0 336-151 336-338 0-124-76-243-152-326a23 23 0 0 0-34 32c73 80 139 187 139 294 0 161-130 292-289 292z" horiz-adv-x="1000" />

<glyph glyph-name="minus-circle" unicode="&#xea38;" d="M513 670c-184 0-333-149-333-333 0-184 149-333 333-333 184 0 333 149 333 333s-149 333-333 333z m-380-333c0 210 170 380 380 380 210 0 380-170 380-380 0-210-170-380-380-380-210 0-380 170-380 380z m234-3a23 23 0 0 0 24 24h250a23 23 0 0 0 0-47h-250a23 23 0 0 0-24 23z" horiz-adv-x="1000" />

<glyph glyph-name="minus" unicode="&#xea39;" d="M133 350a23 23 0 0 0 23 23h688a23 23 0 0 0 0-46h-688a23 23 0 0 0-23 23z" horiz-adv-x="1000" />

<glyph glyph-name="mobile" unicode="&#xea3a;" d="M500 100a31 31 0 1 1 0-62 31 31 0 0 1 0 62z m-210-85c10-10 26-17 54-17h312c28 0 44 7 54 17 10 10 17 26 17 54v406a23 23 0 0 0 46 0v-406c0-35-8-66-30-87s-52-30-87-30h-312c-35 0-66 8-87 30s-30 52-30 87v500c0 35 8 65 30 87s52 30 87 30h390a23 23 0 0 0 0-47h-390c-28 0-44-7-54-16-10-10-17-27-17-54v-500c0-28 7-44 17-54z" horiz-adv-x="1000" />

<glyph glyph-name="order" unicode="&#xea3b;" d="M227 350a23 23 0 0 0 23 23h500a23 23 0 0 0 0-46h-500a23 23 0 0 0-23 23z m-125 250a23 23 0 0 0 23 23h469a23 23 0 0 0 0-46h-469a23 23 0 0 0-23 23z m625 0a23 23 0 0 0 23 23h125a23 23 0 0 0 0-46h-125a23 23 0 0 0-23 23z m-344-500a23 23 0 0 0 23 23h188a23 23 0 0 0 0-46h-188a23 23 0 0 0-23 23z" horiz-adv-x="1000" />

<glyph glyph-name="paper-plane" unicode="&#xea3c;" d="M850 663a30 30 0 0 1-36 37l-644-188c-25-7-29-40-8-54l136-85a23 23 0 1 0-25-40l-135 85c-56 35-45 120 19 139l644 188c58 17 111-37 94-95l-53-182a23 23 0 1 0-45 14l53 181z m-174-137a23 23 0 0 0 0-33l-225-228 155-252a30 30 0 0 1 54 7l63 212a23 23 0 0 0 44-14l-62-212c-19-63-104-74-139-18l-165 268a23 23 0 0 0 5 30l237 240a23 23 0 0 0 33 0z" horiz-adv-x="1000" />

<glyph glyph-name="pencil" unicode="&#xea3d;" d="M868-52h-303c-13 0-25 10-25 25s9 25 25 25h303c13 0 25-9 25-25s-12-25-25-25z m-716 0c-9 0-18 7-21 19l-35 144c-6 28 0 56 19 78l47 59c9 10 22 13 34 4 10-10 13-22 3-35l-47-59c-9-10-12-25-9-38l31-125 135 3c15 0 28 7 37 19 135 169 391 488 397 497 9 13 13 31 6 47-3 19-15 31-31 41-3 0-72 56-75 59-28 25-72 19-97-9l-219-275c-9-10-21-13-34-4-9 10-12 22-3 35l219 275c40 50 112 56 162 15 3-3 72-56 72-56 25-15 44-40 50-69 6-28 3-59-16-84 0 0-3-3-400-500-18-22-43-34-71-34l-154-7z m525 429c-6 0-9 3-15 6l-225 175c-10 9-13 22-3 34 9 10 22 13 34 3l228-175c10-9 13-22 3-34-6-6-15-9-22-9z" horiz-adv-x="1000" />

<glyph glyph-name="phone" unicode="&#xea3e;" d="M229 725c-18-9-42-27-73-59a112 112 0 0 0-7-7c-7-7-15-14-22-30-9-19-16-51-1-101a23 23 0 0 0-45-13c-18 60-11 104 4 134 13 28 36 48 35 48a24 24 0 0 0 2 2c33 32 60 55 86 68 26 13 50 16 74 8 23-7 42-23 60-42 10-9 20-19 30-30l0 0c11-12 22-23 35-36 30-30 41-58 40-87a139 139 0 0 0-6-37c-2-6-4-11-6-16l0-2c-2-5-4-9-5-14-7-20-10-39-5-61 6-23 22-53 62-93 14-14 28-26 40-35a23 23 0 0 0-27-38c-15 11-30 24-46 40-44 43-66 81-74 115-9 35-2 63 5 87 2 5 4 10 5 14l1 2c2 5 3 10 5 15 3 9 4 17 5 24 0 14-4 30-27 53-13 13-25 25-35 36l-1 0c-10 12-20 21-28 30-18 18-31 27-43 31-9 3-21 3-38-6z m77-545c163-162 294-244 397-244 66 0 100 35 113 47l3 3c59 60 81 97 81 135 0 39-27 65-63 101a2359 2359 0 0 0-15 15l-34 34c-55 57-100 42-137 29l-4-1c-3-2-6-2-9-3-4-1-7-2-10-3-12-3-19-16-15-28 3-13 15-19 28-16 6 0 15 3 22 6l2 1c33 12 55 20 91-16 5-5 9-9 12-13 8-8 15-16 23-22l11-11c31-31 51-51 51-73 0-25-22-56-65-100l-7-6c-9-13-31-35-78-35-59 0-172 41-362 232-60 59-107 112-144 159-6 12-22 12-31 6-13-6-13-22-7-31 38-50 88-106 147-166z" horiz-adv-x="1000" />

<glyph glyph-name="photo" unicode="&#xea3f;" d="M681-59h-112c-13 0-25 9-25 25s9 25 25 25h112c110 0 182 75 182 190v338c0 115-72 190-182 190h-359c-109 0-181-75-181-190v-341c0-115 72-191 181-191 12 0 25-9 25-25s-9-25-25-25c-138 4-228 101-228 241v341c0 140 90 237 228 237h359c138 0 228-97 228-237v-341c0-140-90-237-228-237z m-459 200c-6 0-13 3-16 6-9 9-9 25 0 34l63 69c31 31 81 34 115 3l41-40c13-16 38-16 50 0 3 3 59 71 97 115 34 41 91 47 131 13 0 0 3-3 94-97 9-10 9-25 0-35-9-9-25-9-34 0-35 35-88 91-91 94-19 16-47 13-66-6-97-116-97-119-100-119-31-31-84-31-118 0 0 0-38 38-38 41-12 12-34 12-50-3l-62-69c-4-6-10-6-16-6z m137 231c-53 0-96 44-96 97 0 53 43 97 96 97 54 0 97-44 97-97 0-56-43-97-97-97z m0 144c-28 0-50-22-50-50 0-28 22-50 50-50 29 0 50 22 50 50 0 28-21 50-50 50z" horiz-adv-x="1000" />

<glyph glyph-name="plus-circle" unicode="&#xea40;" d="M513 670c-184 0-333-149-333-333 0-184 149-333 333-333 184 0 333 149 333 333s-149 333-333 333z m-380-333c0 210 170 380 380 380 210 0 380-170 380-380 0-210-170-380-380-380-210 0-380 170-380 380z m383 146a23 23 0 0 0 23-24v-101h102a23 23 0 0 0 0-47h-102v-102a23 23 0 0 0-47 0v102h-101a23 23 0 0 0 0 47h101v101a23 23 0 0 0 24 24z" horiz-adv-x="1000" />

<glyph glyph-name="plus" unicode="&#xea41;" d="M133 350a23 23 0 0 0 23 23h344a23 23 0 0 0 0-46h-344a23 23 0 0 0-23 23z m500 0a23 23 0 0 0 23 23h188a23 23 0 0 0 0-46h-188a23 23 0 0 0-23 23z m-133 367a23 23 0 0 0 23-23v-688a23 23 0 0 0-46 0v688a23 23 0 0 0 23 23z" horiz-adv-x="1000" />

<glyph glyph-name="preorder" unicode="&#xea42;" d="M500 561a23 23 0 0 0 24-23v-188a23 23 0 0 0-47 0v188a23 23 0 0 0 23 23z m-20-199a23 23 0 0 0 32 8l162-93a23 23 0 0 0-23-41l-163 94a23 23 0 0 0-8 32z m396 278a23 23 0 0 0 23-23v-156a23 23 0 0 0-23-24h-157a23 23 0 0 0 0 47h133v133a23 23 0 0 0 24 23z m-313 24a320 320 0 0 1-329-492 23 23 0 0 0-39-26 367 367 0 0 0 565 464l132-133a23 23 0 0 0-33-33l-132 133a320 320 0 0 1-164 87z m197-540a23 23 0 0 0 0-34 367 367 0 0 0-400-79 23 23 0 0 0 18 43 320 320 0 0 1 349 70 23 23 0 0 0 33 0z" horiz-adv-x="1000" />

<glyph glyph-name="question-circle" unicode="&#xea43;" d="M500 702c-194 0-352-158-352-352s158-352 352-352c30 0 60 4 88 12a23 23 0 0 0 12-46 399 399 0 0 0-100-12c-220 0-398 178-398 398s178 398 398 398 398-178 398-398c0-81-24-157-66-220a23 23 0 1 0-39 26 350 350 0 0 1 59 194c0 194-158 352-352 352z m0-602a31 31 0 1 1 0 63 31 31 0 0 1 0-63z m-57 450a148 148 0 1 0 80-284v-10a23 23 0 0 0-46 0v32a23 23 0 0 0 23 23 102 102 0 1 1-102 102 23 23 0 0 0-46 0 148 148 0 0 0 91 137z" horiz-adv-x="1000" />

<glyph glyph-name="question" unicode="&#xea44;" d="M500 131a31 31 0 1 1 0 63 31 31 0 0 1 0-63z m-57 481a148 148 0 0 0 140-260c-10-6-20-9-29-11a276 276 0 0 0-24-3l-7-1v-49a23 23 0 0 0-46 0v62c0 9 3 17 9 22 5 5 11 7 15 8 7 3 17 4 24 5l3 0c7 1 12 1 18 2 6 2 9 3 10 4a102 102 0 1 1-158 84 23 23 0 0 0-46 0 148 148 0 0 0 91 137z" horiz-adv-x="1000" />

<glyph glyph-name="search-minus" unicode="&#xea45;" d="M484 733c-194 0-351-157-351-351 0-194 157-351 351-351 83 0 160 29 220 77a23 23 0 0 0 31-1l125-126a23 23 0 0 0-33-33l-110 111a396 396 0 0 0-233-75c-220 0-398 178-398 398 0 220 178 398 398 398 220 0 398-178 398-398 0-23-2-45-6-67a23 23 0 0 0-46 8 353 353 0 0 1 5 59c0 194-157 351-351 351z m-148-352a23 23 0 0 0 23 24h250a23 23 0 0 0 0-47h-250a23 23 0 0 0-23 23z" horiz-adv-x="1000" />

<glyph glyph-name="search-plus" unicode="&#xea46;" d="M468 733c-194 0-351-157-351-351 0-194 157-351 351-351 91 0 173 34 235 90a23 23 0 0 0 32-1l157-156a23 23 0 0 0-34-34l-140 141a396 396 0 0 0-250-87c-219 0-398 178-398 398 0 220 179 398 398 398 220 0 398-178 398-398 0-23-2-45-5-67a23 23 0 0 0-47 8 353 353 0 0 1 5 59c0 194-157 351-351 351z m1-203a23 23 0 0 0 23-24v-101h102a23 23 0 0 0 0-47h-102v-102a23 23 0 0 0-47 0v102h-101a23 23 0 0 0 0 47h101v101a23 23 0 0 0 24 24z" horiz-adv-x="1000" />

<glyph glyph-name="search" unicode="&#xea47;" d="M468 733c-194 0-351-157-351-351 0-194 157-351 351-351 91 0 173 34 235 90a23 23 0 0 0 32-1l157-156a23 23 0 1 0-34-34l-140 141a396 396 0 0 0-250-87c-219 0-398 178-398 398 0 220 179 398 398 398 220 0 398-178 398-398 0-23-2-45-5-67a23 23 0 0 0-47 8 353 353 0 0 1 5 59c0 194-157 351-351 351z" horiz-adv-x="1000" />

<glyph glyph-name="share-alt" unicode="&#xea48;" d="M488 509a23 23 0 0 0-6-33l-98-63a148 148 0 1 0-26 39l98 64a23 23 0 0 0 32-7z m-238-57a102 102 0 1 1 0-204 102 102 0 0 1 0 204z m438-282a102 102 0 0 1 0-203 23 23 0 0 0 0-47 148 148 0 1 0 148 149 23 23 0 0 0-47 0 102 102 0 0 1-101 101z m0 563a102 102 0 1 1 0-203 102 102 0 0 1 0 203z m-149-102a148 148 0 1 0 297 0 148 148 0 0 0-297 0z m-204-336a23 23 0 0 0 33 7l227-146a23 23 0 1 0-25-39l-227 146a23 23 0 0 0-8 32z" horiz-adv-x="1000" />

<glyph glyph-name="shopping-cart" unicode="&#xea49;" d="M319 146c-50 0-93 41-96 91l-41 459-69 13c-12 3-22 15-19 28 4 12 16 22 29 19l87-16c9 0 16-9 19-22l40-478c0-25 22-47 50-47h454c25 0 46 19 50 44l40 272c0 9 0 15-6 25-6 9-13 12-22 12h-437c-13 3-22 13-22 25s9 22 25 22h443c22-3 41-12 54-31 12-16 18-38 15-59l-40-272c-7-47-50-85-97-85h-457z m388 247h-116c-12 0-25 10-25 25s10 25 25 25h116c12 0 25-9 25-25s-13-25-25-25z m-406-369c12 0 22-9 22-21 0-13-10-22-22-22-13 0-22 9-22 22 0 12 9 21 22 21z m0-68c-25 0-47 21-47 47s22 46 47 46 47-21 47-46-22-47-47-47z m472 68c12 0 21-9 21-21 0-13-9-22-21-22-13 0-22 9-22 22-3 12 9 21 22 21z m0-68c-25 0-47 21-47 47s22 46 47 46 46-21 46-46c-3-26-21-47-46-47z" horiz-adv-x="1000" />

<glyph glyph-name="sliders" unicode="&#xea4a;" d="M134 159a23 23 0 0 0 24 23h262a23 23 0 0 0 0-47h-262a23 23 0 0 0-24 24z m380 404a23 23 0 0 0 23 23h263a23 23 0 0 0 0-47h-263a23 23 0 0 0-23 24z m-284 120c8 2 16 3 25 3 67 0 122-54 122-121 0-67-55-121-122-121-67 0-122 54-122 121 0 8 1 16 2 24a23 23 0 1 0 46-9 75 75 0 0 1 74-90c41 0 75 34 75 75a75 75 0 0 1-75 74c-6 0-11 0-16-1a23 23 0 0 0-9 45z m373-523c0 67 54 122 122 122 7 0 14-1 21-2a23 23 0 1 0-8-47 77 77 0 0 1-13 2 75 75 0 0 1-76-75 75 75 0 0 1 76-74 75 75 0 0 1 73 88 23 23 0 0 0 46 8c2-7 2-14 2-22 0-67-54-121-121-121s-122 54-122 121z" horiz-adv-x="1000" />

<glyph glyph-name="sort-amount-asc" unicode="&#xea4b;" d="M546 210a23 23 0 0 0 33 0l63-62a23 23 0 1 0-33-33l-63 62a23 23 0 0 0 0 33z m346 0a23 23 0 0 0 0-33l-157-156a23 23 0 1 0-33 33l156 156a23 23 0 0 0 34 0z m-173 226a23 23 0 0 0 23-23v-375a23 23 0 0 0-47 0v375a23 23 0 0 0 24 23z m-555-86a23 23 0 0 0 24 23h281a23 23 0 0 0 0-46h-281a23 23 0 0 0-24 23z m0 250a23 23 0 0 0 24 23h531a23 23 0 0 0 0-46h-531a23 23 0 0 0-24 23z m0-500a23 23 0 0 0 24 23h218a23 23 0 0 0 0-46h-218a23 23 0 0 0-24 23z" horiz-adv-x="1000" />

<glyph glyph-name="sort-amount-desc" unicode="&#xea4c;" d="M735 679a23 23 0 0 0 0-33l-156-156a23 23 0 1 0-33 33l156 156a23 23 0 0 0 33 0z m61-94a23 23 0 0 0 33 0l63-62a23 23 0 0 0-34-33l-62 62a23 23 0 0 0 0 33z m-77 101a23 23 0 0 0 23-23v-375a23 23 0 0 0-47 0v375a23 23 0 0 0 24 23z m-555-336a23 23 0 0 0 24 23h281a23 23 0 0 0 0-46h-281a23 23 0 0 0-24 23z m0 250a23 23 0 0 0 24 23h218a23 23 0 0 0 0-46h-218a23 23 0 0 0-24 23z m0-500a23 23 0 0 0 24 23h531a23 23 0 0 0 0-46h-531a23 23 0 0 0-24 23z" horiz-adv-x="1000" />

<glyph glyph-name="sort-asc" unicode="&#xea4d;" d="M742 172a23 23 0 0 0-21-12h-416a23 23 0 0 0 0 47h374l-166 263-110-175a23 23 0 1 0-40 25l130 207a23 23 0 0 0 40 0l208-331a23 23 0 0 0 1-24z" horiz-adv-x="1000" />

<glyph glyph-name="sort-desc" unicode="&#xea4e;" d="M284 525a23 23 0 0 0 21 13h416a23 23 0 0 0 0-47h-374l166-264 108 172a23 23 0 1 0 40-25l-128-203a23 23 0 0 0-40 0l-208 331a23 23 0 0 0-1 23z" horiz-adv-x="1000" />

<glyph glyph-name="sort-down" unicode="&#xea4f;" d="M284 525a23 23 0 0 0 21 13h416a23 23 0 0 0 0-47h-374l166-264 108 172a23 23 0 1 0 40-25l-128-203a23 23 0 0 0-40 0l-208 331a23 23 0 0 0-1 23z" horiz-adv-x="1000" />

<glyph glyph-name="sort" unicode="&#xea50;" d="M261 255a23 23 0 0 0 20 12h417a23 23 0 0 0 0-47h-374l166-264 108 172a23 23 0 0 0 40-25l-129-203a23 23 0 0 0-39 0l-209 331a23 23 0 0 0 0 24z m458 146a23 23 0 0 0-21-12h-417a23 23 0 0 0 0 47h375l-166 263-111-175a23 23 0 1 0-39 25l130 207a23 23 0 0 0 40 0l208-331a23 23 0 0 0 1-24z" horiz-adv-x="1000" />

<glyph glyph-name="square-o" unicode="&#xea51;" d="M189 657c-31-33-49-80-49-138v-338c0-58 18-105 49-138 30-33 75-53 131-53h359c57 0 102 20 132 53 31 33 49 80 49 138v338c0 58-18 105-49 138-30 33-75 53-132 53h-359c-56 0-101-20-131-53z m-34 32c40 43 97 67 165 67h359c69 0 126-24 166-67 40-43 61-102 61-170v-338c0-68-21-127-61-170-40-43-97-67-166-67h-359c-68 0-125 24-165 67-40 43-61 102-61 170v338c0 68 21 127 61 170z" horiz-adv-x="1000" />

<glyph glyph-name="square" unicode="&#xea52;" d="M155 689c40 43 97 67 165 67h359c69 0 126-24 166-67 40-43 61-102 61-170v-338c0-68-21-127-61-170-40-43-97-67-166-67h-359c-68 0-125 24-165 67-40 43-61 102-61 170v338c0 68 21 127 61 170z" horiz-adv-x="1000" />

<glyph glyph-name="star-o" unicode="&#xea53;" d="M696-30c-3 0-6 0-13 3l-178 92c-9 3-19 3-25 0l-153-77c-25-12-57-12-79 6-22 16-34 44-28 71l28 164c0 9 0 18-9 24l-122 118c-22 18-28 49-19 74 9 27 31 46 60 49l172 25c9 0 15 6 22 15l75 151a73 73 0 0 0 66 40 73 73 0 0 0 65-40l75-151c4-9 13-12 22-16l172-24c29-3 54-25 60-49 9-28 0-56-19-74l-122-118c-6-6-9-15-9-24l15-84c3-12-6-24-18-27-13-3-25 6-29 18l-15 83c-3 25 3 50 22 65l122 117c6 7 9 19 6 28-3 9-12 19-22 19l-172 24c-19 6-41 19-50 40l-75 151c-10 19-41 19-50 0l-76-151c-9-21-31-37-56-40l-172-24c-9-3-19-10-22-19-3-9 0-18 6-28l122-117c19-15 25-40 22-65l-28-163c-3-9 3-18 9-25 10-6 19-6 32-3l153 77a69 69 0 0 0 69 0l179-95c12-6 15-19 9-31-3-6-13-9-22-9z" horiz-adv-x="1000" />

<glyph glyph-name="times" unicode="&#xea54;" d="M798 648a23 23 0 0 0 0-33l-563-563a23 23 0 0 0-33 33l563 563a23 23 0 0 0 33 0z m-596 0a23 23 0 0 0 33 0l282-281a23 23 0 1 0-34-34l-281 282a23 23 0 0 0 0 33z m406-406a23 23 0 0 0 34 0l156-157a23 23 0 1 0-33-33l-157 156a23 23 0 0 0 0 34z" horiz-adv-x="1000" />

<glyph glyph-name="tasks" unicode="&#xea55;" d="M164 570a183 183 0 0 0 183 178h278c6 0 12-3 16-7l211-220a23 23 0 0 0 7-16v-382a185 185 0 0 0-179-187h-337a183 183 0 0 0-179 187v86a23 23 0 0 0 47 0v-87a136 136 0 0 1 133-139h336a139 139 0 0 1 132 140v372l-197 206h-268a136 136 0 0 1-136-132v-172a23 23 0 1 0-47 0v173z m445 171c13 0 28-3 28-16v-121c0-46 37-84 84-84a23 23 0 0 0 0-47 131 131 0 0 0-131 131v121c0 13 6 16 19 16z m-252-541a23 23 0 0 0 24 23h225a23 23 0 0 0 0-47h-225a23 23 0 0 0-24 24z m0 156a23 23 0 0 0 24 23h140a23 23 0 1 0 0-46h-140a23 23 0 0 0-24 23z" horiz-adv-x="1000" />

<glyph glyph-name="star" unicode="&#xea56;" d="M425 684c28 55 107 55 134 0l76-152a28 28 0 0 1 21-15l171-25c61-9 86-83 41-126l-123-118a27 27 0 0 1-8-24l29-167c11-62-54-107-108-79l-153 79a29 29 0 0 1-26 0l-152-79c-54-28-119 17-108 79l29 167a27 27 0 0 1-8 24l-123 118c-45 43-20 117 41 126l170 25a28 28 0 0 1 21 15l76 152z" horiz-adv-x="1000" />

<glyph glyph-name="toggle-off" unicode="&#xea57;" d="M313 514a164 164 0 1 1 0-328h375a164 164 0 0 1 0 328h-375z m-150-15a211 211 0 0 0 150 62h375a211 211 0 1 0 0-422h-375a211 211 0 0 0-150 360z m150 15a164 164 0 1 1 0-328 164 164 0 0 1 0 328z m-211-164a211 211 0 1 0 421 0 211 211 0 0 0-421 0z" horiz-adv-x="1000" />

<glyph glyph-name="toggle-on" unicode="&#xea58;" d="M163 499a211 211 0 0 0 150 62h375a211 211 0 1 0 0-422h-375a211 211 0 0 0-150 360z m368-149a156 156 0 0 1 313 0 156 156 0 0 1-313 0" horiz-adv-x="1000" />

<glyph glyph-name="trash" unicode="&#xea59;" d="M531-63h-9c-13 0-22 10-22 25 0 13 9 22 25 22h141c43 0 72 25 75 69 12 116 34 397 34 397 0 13 13 22 25 22s22-13 22-25c0-3-22-281-34-400-7-69-54-110-122-113h-7c-53 3-78 3-128 3z m-193 4c-66 0-113 43-119 112-13 116-35 394-38 397 0 13 10 25 22 25 13 0 25-9 25-22 0-3 22-281 35-397 3-31 18-69 71-69 13 0 22-12 22-25 3-12-6-21-18-21z m518 622h-706c-16 0-25 12-25 25s9 25 25 25h706c13 0 25-10 25-25s-12-25-25-25z m-137 0c-44 0-81 31-91 75l-9 50c-3 12-16 21-28 21h-178c-13 0-25-9-29-21l-9-50c-9-44-47-75-91-75-12 0-25 9-25 25s10 25 25 25c22 0 41 15 44 37l10 50c9 34 40 56 75 56h175c37 0 68-22 78-56l9-53c3-22 22-38 44-38 12 0 25-9 25-25s-13-21-25-21z" horiz-adv-x="1000" />

<glyph glyph-name="user" unicode="&#xea5a;" d="M269 201c58 19 136 25 217 25 82 0 160-6 218-26 29-10 55-24 74-43 20-21 30-46 30-77 0-30-11-56-30-76-19-20-45-34-74-44-59-19-137-25-218-25-33 0-66 1-97 3a23 23 0 1 0 4 47c29-2 61-4 93-4 80 0 152 7 203 24 25 8 43 19 55 31 11 12 18 26 18 44 0 18-7 32-18 44-12 13-30 23-55 32-51 17-122 23-203 23-80 0-151-6-202-23-25-8-44-19-56-31a60 60 0 0 1-17-44c0-21 8-37 23-50a23 23 0 1 0-31-35c-24 21-39 50-39 85 0 31 11 56 31 76 19 20 45 34 74 44z m3 333a214 214 0 1 0 214-214h-1a213 213 0 0 0-213 214z m214 169a169 169 0 0 1-169-169v0a169 169 0 0 1 168-170h1a169 169 0 0 1 0 339z" horiz-adv-x="1000" />
</font>
</defs>
</svg>
